<?xml version="1.0" encoding="utf-8"?>
<!-- Generator: Adobe Illustrator 16.0.0, SVG Export Plug-In . SVG Version: 6.00 Build 0)  -->
<!DOCTYPE svg PUBLIC "-//W3C//DTD SVG 1.1//EN" "http://www.w3.org/Graphics/SVG/1.1/DTD/svg11.dtd">
<svg version="1.1" id="Layer_1" xmlns="http://www.w3.org/2000/svg" xmlns:xlink="http://www.w3.org/1999/xlink" x="0px" y="0px"
	 width="28px" height="28px" viewBox="0 0 28 28" enable-background="new 0 0 28 28" xml:space="preserve">
<path d="M19.162,15.567v-3.136h7.964c0.06,0.515,0.097,1.038,0.097,1.569s-0.037,1.055-0.097,1.567H19.162z M26.911,16.847
	c-0.245,1.104-0.629,2.156-1.129,3.138h-2.121v-3.138H26.911z M13.381,27.186c-1.983-0.095-3.85-0.631-5.511-1.51h5.511V27.186z
	 M17.883,24.4H10.16v-3.14h7.723V24.4z M20.17,25.678c-1.66,0.879-3.528,1.415-5.512,1.509v-1.509H20.17z M0.916,15.567
	C0.853,15.055,0.818,14.531,0.818,14s0.035-1.054,0.098-1.569h7.967v3.136H0.916z M4.381,16.847v3.138H2.259
	c-0.503-0.981-0.885-2.034-1.128-3.138H4.381z M1.131,11.155c0.243-1.105,0.625-2.158,1.128-3.14h2.122v3.14H1.131z M14.658,0.814
	c1.983,0.095,3.854,0.63,5.512,1.509h-5.512V0.814z M10.16,3.6h7.723v3.138H10.16V3.6z M7.87,2.322
	c1.662-0.878,3.528-1.414,5.511-1.508v1.508H7.87z M14.66,11.155v-3.14h7.724v3.14H14.66z M17.883,12.431v3.136H10.16v-3.136H17.883
	z M13.382,8.016v3.14H5.659v-3.14H13.382z M5.659,16.847h7.724v3.138H5.659V16.847z M14.66,19.984v-3.138h7.724v3.138H14.66z
	 M23.663,11.155v-3.14h2.119c0.503,0.981,0.884,2.034,1.129,3.14H23.663z M25.038,6.738h-5.876V3.6h2.977
	C23.266,4.482,24.247,5.542,25.038,6.738z M5.902,3.6h2.981v3.14h-5.88C3.793,5.542,4.775,4.482,5.902,3.6z M3.002,21.261h5.88v3.14
	H5.902C4.775,23.518,3.793,22.459,3.002,21.261z M22.139,24.4h-2.977v-3.14h5.876C24.247,22.459,23.266,23.518,22.139,24.4z"/>
</svg>
