<?xml version="1.0" encoding="utf-8"?>
<!-- Generator: Adobe Illustrator 16.0.0, SVG Export Plug-In . SVG Version: 6.00 Build 0)  -->
<!DOCTYPE svg PUBLIC "-//W3C//DTD SVG 1.1//EN" "http://www.w3.org/Graphics/SVG/1.1/DTD/svg11.dtd">
<svg version="1.1" id="Layer_1" xmlns="http://www.w3.org/2000/svg" xmlns:xlink="http://www.w3.org/1999/xlink" x="0px" y="0px"
	 width="28px" height="28px" viewBox="0 0 28 28" enable-background="new 0 0 28 28" xml:space="preserve">
<g id="Menu_2">
	<path d="M1.974,8.208h23.687c1.089,0,1.974-0.883,1.974-1.974c0-1.091-0.885-1.974-1.974-1.974H1.974C0.885,4.261,0,5.144,0,6.235
		C0,7.326,0.885,8.208,1.974,8.208z"/>
	<path d="M25.661,12.156H1.974C0.885,12.156,0,13.039,0,14.13c0,1.092,0.885,1.975,1.974,1.975h23.687
		c1.089,0,1.974-0.883,1.974-1.975C27.635,13.039,26.75,12.156,25.661,12.156z"/>
	<path d="M25.661,20.052H1.974C0.885,20.052,0,20.935,0,22.026C0,23.117,0.885,24,1.974,24h23.687c1.089,0,1.974-0.883,1.974-1.974
		C27.635,20.935,26.75,20.052,25.661,20.052z"/>
</g>
</svg>
