<?xml version="1.0" encoding="utf-8"?>
<!-- Generator: Adobe Illustrator 16.0.0, SVG Export Plug-In . SVG Version: 6.00 Build 0)  -->
<!DOCTYPE svg PUBLIC "-//W3C//DTD SVG 1.1//EN" "http://www.w3.org/Graphics/SVG/1.1/DTD/svg11.dtd">
<svg version="1.1" id="Layer_1" xmlns="http://www.w3.org/2000/svg" xmlns:xlink="http://www.w3.org/1999/xlink" x="0px" y="0px"
	 width="28px" height="28px" viewBox="0 0 28 28" enable-background="new 0 0 28 28" xml:space="preserve">
<path id="X_1" d="M27.301,22.429l-8.522-8.526l8.525-8.525c0.677-0.673,0.677-1.767,0-2.436l-2.438-2.437
	c-0.674-0.673-1.764-0.673-2.437,0l-8.523,8.526L5.377,0.504c-0.67-0.673-1.763-0.673-2.436,0l-2.437,2.44
	c-0.673,0.669-0.673,1.763,0,2.436l8.53,8.526l-8.53,8.523c-0.673,0.673-0.673,1.767,0,2.437l2.437,2.436
	c0.673,0.673,1.766,0.673,2.436,0l8.529-8.525l8.523,8.525c0.673,0.673,1.763,0.673,2.437,0l2.436-2.436
	C27.98,24.191,27.98,23.102,27.301,22.429z"/>
</svg>
