<?xml version="1.0" encoding="utf-8"?>
<!-- Generator: Adobe Illustrator 16.0.0, SVG Export Plug-In . SVG Version: 6.00 Build 0)  -->
<!DOCTYPE svg PUBLIC "-//W3C//DTD SVG 1.1//EN" "http://www.w3.org/Graphics/SVG/1.1/DTD/svg11.dtd">
<svg version="1.1" id="Layer_1" xmlns="http://www.w3.org/2000/svg" xmlns:xlink="http://www.w3.org/1999/xlink" x="0px" y="0px"
	 width="222.606px" height="81.132px" viewBox="0 0 222.606 81.132" enable-background="new 0 0 222.606 81.132"
	 xml:space="preserve">
<g>
	<g>
		<path fill="#FFFFFF" stroke="#000000" stroke-miterlimit="10" stroke-opacity="0" d="M6.133,29.177
			c0,0,2.727-27.837,29.199-27.837C61.804,1.34,64.543,30,64.543,30H52.22c0,0,0.475-18.119-16.874-18.119
			S17.988,29.377,17.988,29.377L6.133,29.177z"/>
		<line fill="none" stroke="#000000" stroke-miterlimit="10" stroke-opacity="0" x1="17.848" y1="6.633" x2="25.126" y2="15.67"/>
		<line fill="none" stroke="#000000" stroke-miterlimit="10" stroke-opacity="0" x1="52.784" y1="6.633" x2="45.242" y2="16"/>
		<polygon fill="#FFFFFF" stroke="#000000" stroke-width="2" stroke-miterlimit="10" stroke-opacity="0" points="28.485,0 42.178,0 
			37.605,14 32.593,14 		"/>
		<path fill="#FFFFFF" stroke="#000000" stroke-width="2" stroke-miterlimit="10" stroke-opacity="0" d="M67.106,16v14H52.22
			c0-3-0.443-4.842-0.804-5.951L60.133,16H67.106z"/>
		<path fill="#FFFFFF" stroke="#000000" stroke-width="2" stroke-miterlimit="10" stroke-opacity="0" d="M3.106,16v14h14.99
			c0-3,0.443-4.842,0.804-5.951L10.184,16H3.106z"/>
	</g>
	<g>
		<path fill="#FFFFFF" d="M13.336,55.625H7.795v9.383H3.066V38.816h10.27c6.021,0,9.235,3.361,9.235,8.386
			C22.571,52.226,19.357,55.625,13.336,55.625z M13.151,42.99H7.795v8.46h5.356c3.177,0,4.617-1.699,4.617-4.211
			C17.769,44.727,16.328,42.99,13.151,42.99z"/>
		<path fill="#FFFFFF" d="M42.701,62.385c-1.958,1.995-4.692,3.104-7.5,3.104c-2.807,0-5.43-0.924-7.425-2.919
			c-2.845-2.844-3.251-6.354-3.251-10.639s0.406-7.795,3.251-10.64c1.995-1.994,4.618-2.955,7.425-2.955
			c2.808,0,5.542,1.034,7.5,3.029c1.515,1.552,2.29,3.62,2.512,5.689h-4.876c-0.111-1.146-0.518-1.958-1.183-2.771
			c-0.85-1.071-2.327-1.625-3.953-1.625c-1.515,0-2.992,0.628-4.026,1.736c-1.81,1.884-1.81,5.135-1.81,7.536s0,5.652,1.81,7.536
			c1.034,1.108,2.512,1.736,4.026,1.736c1.626,0,3.104-0.592,3.953-1.663c0.665-0.812,1.071-1.735,1.183-2.881h4.876
			C44.991,58.728,44.216,60.833,42.701,62.385z"/>
		<path fill="#FFFFFF" d="M66.709,63.271c-2.032,1.552-4.47,1.773-6.982,1.773H49.31V38.816h10.417c2.105,0,4.285,0.295,6.059,1.44
			c1.921,1.256,3.029,3.436,3.029,5.689c0,2.143-0.997,4.544-3.214,5.541c2.475,1.146,3.768,3.473,3.768,5.91
			C69.368,59.726,68.593,61.831,66.709,63.271z M59.911,42.917h-5.873v6.575h5.984c2.143,0,3.953-0.775,3.953-3.251
			C63.976,43.729,62.054,42.917,59.911,42.917z M60.06,53.482h-6.021v7.277h5.873c2.217,0,4.618-0.812,4.618-3.473
			C64.529,54.479,62.571,53.482,60.06,53.482z"/>
		<path fill="#FFFFFF" d="M98.954,63.271c-2.032,1.552-4.47,1.773-6.982,1.773H81.555V38.816h10.417c2.105,0,4.285,0.295,6.059,1.44
			c1.921,1.256,3.029,3.436,3.029,5.689c0,2.143-0.997,4.544-3.214,5.541c2.475,1.146,3.768,3.473,3.768,5.91
			C101.613,59.726,100.838,61.831,98.954,63.271z M92.156,42.917h-5.873v6.575h5.984c2.143,0,3.952-0.775,3.952-3.251
			C96.22,43.729,94.299,42.917,92.156,42.917z M92.305,53.482h-6.021v7.277h5.873c2.217,0,4.618-0.812,4.618-3.473
			C96.774,54.479,94.816,53.482,92.305,53.482z"/>
		<path fill="#FFFFFF" d="M118.086,65.008l-0.333-2.512c-0.923,1.884-3.065,2.992-5.504,2.992c-4.101,0-6.649-2.771-6.649-6.871
			V45.798h4.617v11.785c0,2.253,0.887,3.657,3.325,3.657c1.071,0,1.811-0.407,2.364-0.961c1.108-1.034,1.403-2.771,1.403-4.322
			V45.798h4.618v19.21H118.086z"/>
		<path fill="#FFFFFF" d="M127.613,43.139v-4.766h4.95v4.766H127.613z M127.761,65.008v-19.21h4.691v19.21H127.761z"/>
		<path fill="#FFFFFF" d="M143.386,65.229c-3.141,0-5.246-1.515-5.246-5.172V38.299h4.654v20.983c0,1.107,0.259,1.847,1.848,1.847
			c0.406,0,0.517-0.037,0.775-0.037v3.879C144.494,65.155,144.309,65.229,143.386,65.229z"/>
		<path fill="#FFFFFF" d="M161.67,65.008l-0.296-2.105c-1.146,1.773-3.288,2.549-5.394,2.549c-1.921,0-3.51-0.665-4.691-1.625
			c-2.29-1.885-3.398-4.766-3.398-8.386c0-3.769,1.145-6.687,3.436-8.571c1.182-0.96,2.733-1.551,4.691-1.551
			c2.438,0,4.211,0.812,5.024,1.81v-8.792h4.617v26.672H161.67z M156.904,49.197c-1.44,0-2.438,0.664-3.104,1.515
			c-0.96,1.256-1.219,2.992-1.219,4.654s0.259,3.436,1.219,4.691c0.665,0.85,1.663,1.515,3.104,1.515
			c3.62,0,4.359-3.436,4.359-6.206S160.524,49.197,156.904,49.197z"/>
		<path fill="#FFFFFF" d="M171.346,43.139v-4.766h4.95v4.766H171.346z M171.493,65.008v-19.21h4.691v19.21H171.493z"/>
		<path fill="#FFFFFF" d="M193.73,65.008V53.224c0-2.254-0.739-3.62-3.177-3.62c-1.626,0-2.697,1.034-3.325,2.438
			c-0.665,1.515-0.628,3.51-0.628,5.135v7.832h-4.617v-19.21h3.879l0.332,2.476c1.146-2.032,3.436-2.955,5.652-2.955
			c4.101,0,6.501,2.881,6.501,6.871v12.818H193.73z"/>
		<path fill="#FFFFFF" d="M211.458,73.984c-2.327,0-4.803-0.185-6.797-1.588c-1.478-1.035-2.328-2.401-2.328-4.212
			c0-1.662,0.813-3.177,2.291-3.916c-1.22-0.664-1.921-2.031-1.921-3.287c0-1.626,0.738-2.919,2.29-3.879
			c-1.182-1.183-1.921-2.771-1.921-4.729c0-4.581,3.547-7.056,7.868-7.056c1.589,0,3.104,0.443,4.359,1.182
			c0.812-1.662,2.29-2.401,3.916-2.401c0.296,0,0.96,0,1.256,0.074v3.583c-0.11,0-0.259-0.037-0.369-0.037
			c-1.071,0-2.032,0.296-2.327,1.22c0.628,1.034,0.997,2.18,0.997,3.473c0,4.396-3.694,6.981-7.832,6.981
			c-1.071,0-2.143-0.185-3.103-0.517c-0.443,0.258-0.961,0.738-0.961,1.366c0,1.146,1.146,1.404,2.106,1.404h3.177
			c1.921,0,4.433,0.036,6.243,1.293c1.662,1.145,2.327,2.771,2.327,4.617C220.73,72.618,215.743,73.984,211.458,73.984z
			 M211.79,65.304h-3.62c-0.997,0.295-1.736,1.145-1.736,2.364c0,2.438,3.029,2.659,4.84,2.659c1.847,0,5.098-0.11,5.098-2.659
			C216.371,65.304,213.526,65.304,211.79,65.304z M210.94,48.79c-2.105,0-3.398,1.515-3.398,3.584c0,2.068,1.293,3.546,3.398,3.546
			c2.106,0,3.399-1.478,3.399-3.546C214.34,50.305,213.047,48.79,210.94,48.79z"/>
	</g>
	<g>
		<path fill="#FFFFFF" d="M9.895,80.346c-0.674,0.674-1.71,0.948-2.796,0.948c-0.937,0-1.922-0.249-2.646-0.911
			c-0.524-0.475-0.924-1.223-0.924-2.06h1.648c0,0.438,0.199,0.824,0.461,1.086c0.375,0.375,0.974,0.475,1.485,0.475
			c0.612,0,1.198-0.125,1.536-0.475c0.199-0.212,0.349-0.424,0.349-0.849c0-0.649-0.499-0.948-1.048-1.049
			c-0.6-0.112-1.373-0.137-1.96-0.236c-1.223-0.2-2.247-0.999-2.247-2.472c0-0.699,0.312-1.286,0.774-1.747
			c0.587-0.574,1.561-0.937,2.596-0.937c0.949,0,1.873,0.3,2.472,0.861c0.524,0.499,0.887,1.148,0.898,1.885H8.846
			c-0.013-0.312-0.175-0.649-0.387-0.874c-0.287-0.3-0.874-0.475-1.348-0.475c-0.5,0-1.074,0.112-1.436,0.487
			c-0.188,0.199-0.3,0.424-0.3,0.749c0,0.574,0.375,0.873,0.898,0.961c0.562,0.087,1.349,0.149,1.923,0.225
			c1.322,0.188,2.434,1.049,2.434,2.559C10.631,79.322,10.331,79.908,9.895,80.346z"/>
		<path fill="#FFFFFF" d="M20.279,80.296c-0.674,0.674-1.598,0.998-2.546,0.998c-0.949,0-1.873-0.324-2.547-0.998
			c-0.961-0.962-1.123-2.135-1.123-3.583c0-1.447,0.162-2.633,1.123-3.595c0.674-0.674,1.598-0.998,2.547-0.998
			c0.948,0,1.872,0.324,2.546,0.998c0.961,0.962,1.123,2.147,1.123,3.595C21.402,78.161,21.24,79.334,20.279,80.296z M19.131,74.167
			c-0.35-0.374-0.886-0.587-1.397-0.587c-0.513,0-1.049,0.213-1.398,0.587c-0.611,0.637-0.637,1.735-0.637,2.546
			c0,0.812,0.025,1.897,0.637,2.534c0.35,0.374,0.886,0.587,1.398,0.587c0.512,0,1.048-0.213,1.397-0.587
			c0.611-0.637,0.637-1.723,0.637-2.534C19.768,75.902,19.742,74.804,19.131,74.167z"/>
		<path fill="#FFFFFF" d="M25.459,81.132v-8.85h1.61v7.327h4.106v1.522H25.459z"/>
		<path fill="#FFFFFF" d="M37.666,81.294c-2.284,0-3.47-1.447-3.47-3.558v-5.454h1.61v5.43c0,1.261,0.574,2.122,1.859,2.122
			c1.286,0,1.86-0.861,1.86-2.122v-5.43h1.61v5.454C41.137,79.847,39.95,81.294,37.666,81.294z"/>
		<path fill="#FFFFFF" d="M48.726,73.78v7.352h-1.61V73.78h-2.621v-1.498h6.853v1.498H48.726z"/>
		<path fill="#FFFFFF" d="M54.954,81.132v-8.85h1.635v8.85H54.954z"/>
		<path fill="#FFFFFF" d="M66.861,80.296c-0.674,0.674-1.598,0.998-2.546,0.998c-0.949,0-1.873-0.324-2.547-0.998
			c-0.961-0.962-1.123-2.135-1.123-3.583c0-1.447,0.162-2.633,1.123-3.595c0.674-0.674,1.598-0.998,2.547-0.998
			c0.948,0,1.872,0.324,2.546,0.998c0.961,0.962,1.123,2.147,1.123,3.595C67.984,78.161,67.822,79.334,66.861,80.296z
			 M65.713,74.167c-0.35-0.374-0.886-0.587-1.397-0.587c-0.513,0-1.049,0.213-1.398,0.587c-0.611,0.637-0.637,1.735-0.637,2.546
			c0,0.812,0.025,1.897,0.637,2.534c0.35,0.374,0.886,0.587,1.398,0.587c0.512,0,1.048-0.213,1.397-0.587
			c0.611-0.637,0.637-1.723,0.637-2.534C66.35,75.902,66.324,74.804,65.713,74.167z"/>
		<path fill="#FFFFFF" d="M77.458,81.132l-3.832-6.078v6.078h-1.585v-8.85h1.71l3.782,5.991v-5.991h1.585v8.85H77.458z"/>
		<path fill="#FFFFFF" d="M89.391,80.346c-0.674,0.674-1.71,0.948-2.796,0.948c-0.937,0-1.922-0.249-2.646-0.911
			c-0.524-0.475-0.924-1.223-0.924-2.06h1.648c0,0.438,0.199,0.824,0.461,1.086c0.375,0.375,0.974,0.475,1.485,0.475
			c0.612,0,1.198-0.125,1.536-0.475c0.199-0.212,0.349-0.424,0.349-0.849c0-0.649-0.499-0.948-1.048-1.049
			c-0.6-0.112-1.373-0.137-1.96-0.236c-1.223-0.2-2.247-0.999-2.247-2.472c0-0.699,0.312-1.286,0.774-1.747
			c0.587-0.574,1.561-0.937,2.596-0.937c0.949,0,1.873,0.3,2.472,0.861c0.524,0.499,0.887,1.148,0.898,1.885h-1.647
			c-0.013-0.312-0.175-0.649-0.387-0.874c-0.287-0.3-0.874-0.475-1.348-0.475c-0.5,0-1.074,0.112-1.436,0.487
			c-0.188,0.199-0.3,0.424-0.3,0.749c0,0.574,0.375,0.873,0.898,0.961c0.562,0.087,1.349,0.149,1.923,0.225
			c1.322,0.188,2.434,1.049,2.434,2.559C90.127,79.322,89.827,79.908,89.391,80.346z"/>
		<path fill="#FFFFFF" d="M99.177,81.132v-8.85h1.61v7.327h4.106v1.522H99.177z"/>
		<path fill="#FFFFFF" d="M110.498,73.78v7.352h-1.61V73.78h-2.621v-1.498h6.853v1.498H110.498z"/>
		<path fill="#FFFFFF" d="M122.654,80.184c-0.587,0.611-1.473,0.948-2.484,0.948h-3.444v-8.85h3.444
			c1.012,0,1.897,0.337,2.484,0.948c0.911,0.937,1.036,2.247,1.036,3.471C123.69,77.924,123.565,79.247,122.654,80.184z
			 M121.419,74.229c-0.3-0.3-0.736-0.499-1.249-0.499h-1.834v5.953h1.834c0.513,0,0.949-0.199,1.249-0.499
			c0.624-0.624,0.636-1.673,0.636-2.483C122.055,75.89,122.043,74.854,121.419,74.229z"/>
		<path fill="#FFFFFF" d="M126.287,81.132v-1.947h1.896v1.947H126.287z"/>
	</g>
</g>
<g>
</g>
<g>
</g>
<g>
</g>
<g>
</g>
<g>
</g>
<g>
</g>
<g>
</g>
<g>
</g>
<g>
</g>
<g>
</g>
<g>
</g>
<g>
</g>
<g>
</g>
<g>
</g>
<g>
</g>
</svg>
