<?xml version="1.0" encoding="utf-8"?>
<!-- Generator: Adobe Illustrator 16.0.0, SVG Export Plug-In . SVG Version: 6.00 Build 0)  -->
<!DOCTYPE svg PUBLIC "-//W3C//DTD SVG 1.1//EN" "http://www.w3.org/Graphics/SVG/1.1/DTD/svg11.dtd">
<svg version="1.1" id="Layer_1" xmlns="http://www.w3.org/2000/svg" xmlns:xlink="http://www.w3.org/1999/xlink" x="0px" y="0px"
	 width="28px" height="28px" viewBox="0 0 28 28" enable-background="new 0 0 28 28" xml:space="preserve">
<g>
	<path d="M21.215,10.531c-0.149-0.338-0.872-0.468-1.396-0.11l-6.727,4.583l-6.54-4.574c-0.523-0.366-1.248-0.243-1.614,0.282
		c-0.37,0.525-0.241,1.248,0.283,1.615l7.193,5.037c0.202,0.14,0.434,0.207,0.667,0.207c0.227,0,0.453-0.065,0.652-0.198
		l7.389-5.038C21.653,11.977,21.788,11.254,21.215,10.531z"/>
	<path d="M27.521,20.853c0.14,0.146,0.171-0.006,0.171-0.162c0-0.154-0.031-0.305-0.09-0.444c-0.059-0.144-0.144-0.268-0.251-0.378
		l-3.596-3.596c-0.452-0.454-1.187-0.454-1.641,0c-0.453,0.454-0.453,1.189,0,1.642l1.617,1.792h-6.561
		c-0.639,0-1.158,0.344-1.158,0.984c0,0.642,0.52,1.31,1.158,1.31h6.561l-1.617,1.469c-0.453,0.452-0.453,1.186,0,1.64
		c0.227,0.226,0.522,0.34,0.82,0.34c0.296,0,0.594-0.114,0.82-0.34l3.596-3.594C27.459,21.406,27.544,21.279,27.521,20.853z"/>
	<path d="M11.467,22H4.976c-1.369,0-2.682-1.264-2.682-2.635V8.427c0-1.371,1.313-2.482,2.682-2.482h16.408
		c1.369,0,2.697,1.111,2.697,2.482v2.734c0,0.643,0.308,1.16,0.947,1.16c0.643,0,1.347-0.518,1.347-1.16V8.427
		c0-2.651-2.34-4.776-4.991-4.776H4.976C2.327,3.651,0,5.775,0,8.427v10.938c0,2.651,2.327,4.928,4.976,4.928h6.443
		c0.642,0,1.16-0.641,1.16-1.281C12.579,22.37,12.061,22,11.467,22z"/>
</g>
</svg>
