<?xml version="1.0" encoding="utf-8"?>
<!-- Generator: Adobe Illustrator 16.0.0, SVG Export Plug-In . SVG Version: 6.00 Build 0)  -->
<!DOCTYPE svg PUBLIC "-//W3C//DTD SVG 1.1//EN" "http://www.w3.org/Graphics/SVG/1.1/DTD/svg11.dtd">
<svg version="1.1" id="Layer_1" xmlns="http://www.w3.org/2000/svg" xmlns:xlink="http://www.w3.org/1999/xlink" x="0px" y="0px"
	 width="28px" height="28px" viewBox="0 0 28 28" enable-background="new 0 0 28 28" xml:space="preserve">
<path d="M23.173,0.64h-6.624c-0.334,0-0.603,0.27-0.603,0.603v24.852c-0.807,0.069-1.61,0.078-2.411,0.023V12.53
	c0-0.116-0.04-0.215-0.094-0.306l0.007-0.004l-4.47-7.281c-0.11-0.179-0.303-0.286-0.513-0.286c-0.21,0-0.403,0.107-0.515,0.286
	L3.475,12.22l0.001,0.001c-0.056,0.09-0.096,0.193-0.096,0.309v10.287c0,0.192,0.091,0.364,0.234,0.476
	c0.758,0.658,1.582,1.247,2.439,1.744c2.056,1.213,4.415,1.984,6.825,2.237c0.562,0.057,1.127,0.085,1.698,0.085
	c0.681,0,1.365-0.04,2.044-0.123c2.421-0.28,4.719-1.065,6.829-2.336c0.108-0.056,0.201-0.146,0.26-0.257
	c0.062-0.115,0.082-0.244,0.064-0.365V1.243C23.775,0.91,23.508,0.64,23.173,0.64z M6.964,13.133H9.79V25.38
	c-0.984-0.316-1.931-0.729-2.826-1.229V13.133z M5.071,11.929l1.696-2.76c0.537,0.215,1.115,0.328,1.7,0.328
	c0.596,0,1.174-0.111,1.697-0.326l1.69,2.755H5.071V11.929z M8.467,6.405l1.042,1.703C8.854,8.319,8.114,8.319,7.424,8.1
	L8.467,6.405z M4.586,13.133H5.76v10.284c-0.403-0.275-0.797-0.566-1.174-0.879V13.133z M12.332,25.99
	c-0.449-0.067-0.895-0.16-1.338-0.264V13.133h1.338V25.99z M22.572,24.022c-1.696,0.976-3.515,1.622-5.422,1.927V14.015h2.711V12.81
	H17.15v-1.183h1.685v-1.206H17.15V9.246h1.656V8.041H17.15V6.874h2.711V5.67H17.15V4.617h1.618V3.411H17.15V1.846h5.422V24.022z"/>
</svg>
