<?xml version="1.0" encoding="utf-8"?>
<!-- Generator: Adobe Illustrator 16.0.0, SVG Export Plug-In . SVG Version: 6.00 Build 0)  -->
<!DOCTYPE svg PUBLIC "-//W3C//DTD SVG 1.1//EN" "http://www.w3.org/Graphics/SVG/1.1/DTD/svg11.dtd">
<svg version="1.1" id="Layer_1" xmlns="http://www.w3.org/2000/svg" xmlns:xlink="http://www.w3.org/1999/xlink" x="0px" y="0px"
	 width="28px" height="28px" viewBox="0 0 28 28" enable-background="new 0 0 28 28" xml:space="preserve">
<path d="M1.656,22.555c0-0.029,0.001-0.053,0.006-0.071c0.715-0.492,4.725-3.131,5.474-3.61c0.078-0.002,0.279,0.025,0.564,0.175
	c0.306,0.159,1.194,0.657,2.435,1.363l0.969,0.549l0.909-0.637c0.677-0.475,2.15-1.606,4.392-3.841
	c2.252-2.246,3.384-3.71,3.858-4.382l0.641-0.91l-0.554-0.962c-0.536-0.935-1.178-2.063-1.37-2.43
	c-0.155-0.294-0.168-0.497-0.168-0.551c0-0.008,0-0.016,0.002-0.021c0.421-0.67,3.14-4.752,3.635-5.473
	c0.07-0.012,0.223-0.001,0.415,0.13c1.54,1.111,3.15,2.685,3.38,3.302c-0.154,3.279-3.045,7.88-8.154,12.973
	c-5.108,5.094-9.72,7.975-12.999,8.127c-0.619-0.221-2.209-1.826-3.313-3.349C1.701,22.824,1.656,22.684,1.656,22.555
	 M-0.044,22.555c0,0.463,0.141,0.954,0.438,1.381c0.029,0.041,2.966,4.152,4.668,4.1c4.779-0.152,10.396-4.783,14.266-8.642
	C23.199,15.537,27.845,9.935,28,5.15V5.111c0-1.676-4.073-4.621-4.113-4.648c-1.108-0.774-2.327-0.492-2.821,0.212
	c-0.304,0.427-3.425,5.11-3.778,5.684c-0.152,0.251-0.228,0.555-0.228,0.887c0,0.426,0.125,0.901,0.368,1.365
	c0.237,0.451,1.017,1.814,1.401,2.485c-0.415,0.587-1.478,1.969-3.664,4.146c-2.168,2.165-3.566,3.233-4.158,3.649
	c-0.671-0.382-2.04-1.157-2.49-1.394c-0.85-0.447-1.698-0.497-2.271-0.134c-0.538,0.341-5.2,3.442-5.645,3.761
	C0.183,21.428-0.044,21.968-0.044,22.555L-0.044,22.555z"/>
</svg>
