<?xml version="1.0" encoding="utf-8"?>
<!-- Generator: Adobe Illustrator 16.0.0, SVG Export Plug-In . SVG Version: 6.00 Build 0)  -->
<!DOCTYPE svg PUBLIC "-//W3C//DTD SVG 1.1//EN" "http://www.w3.org/Graphics/SVG/1.1/DTD/svg11.dtd">
<svg version="1.1" id="Layer_1" xmlns="http://www.w3.org/2000/svg" xmlns:xlink="http://www.w3.org/1999/xlink" x="0px" y="0px"
	 width="28px" height="28px" viewBox="0 0 28 28" enable-background="new 0 0 28 28" xml:space="preserve">
<g>
	<path d="M0.839,16.682c0-4.989,4.339-9.979,11.137-13.089l0.868,0.868c-4.123,2.242-6.365,5.351-6.365,8.606
		c0,5.133,6.365,5.496,6.365,5.785c0,2.17-1.663,4.991-5.134,4.991C3.441,23.843,0.839,20.515,0.839,16.682z M15.229,16.682
		c0-4.989,4.267-9.979,11.064-13.089l0.868,0.868c-4.049,2.242-6.437,5.351-6.437,8.606c0,5.133,6.437,5.496,6.437,5.785
		c0,2.17-1.664,4.991-5.134,4.991C17.833,23.843,15.229,20.515,15.229,16.682z"/>
</g>
</svg>
