<?xml version="1.0" encoding="utf-8"?>
<!-- Generator: Adobe Illustrator 16.0.0, SVG Export Plug-In . SVG Version: 6.00 Build 0)  -->
<!DOCTYPE svg PUBLIC "-//W3C//DTD SVG 1.1//EN" "http://www.w3.org/Graphics/SVG/1.1/DTD/svg11.dtd">
<svg version="1.1" id="Layer_1" xmlns="http://www.w3.org/2000/svg" xmlns:xlink="http://www.w3.org/1999/xlink" x="0px" y="0px"
	 width="28px" height="28px" viewBox="0 0 28 28" enable-background="new 0 0 28 28" xml:space="preserve">
<g transform="translate(0,-952.36218)">
	<path d="M15.176,954.804c-3.083,0.018-5.906,1.992-6.902,4.986c-1.854,0.31-3.62,1.225-4.985,2.711
		c-3.25,3.544-3.009,9.078,0.535,12.326c3.381,3.102,8.576,3.018,11.866-0.078c0.643,0.424,1.357,0.76,2.12,0.973
		c3.983,1.111,8.136-1.254,9.243-5.25c1.047-3.77-0.978-7.684-4.558-9.049c-0.284-3.076-2.507-5.661-5.54-6.404
		c-0.49-0.121-0.975-0.196-1.458-0.215C15.39,954.8,15.281,954.804,15.176,954.804z M15.146,956.759
		c0.443-0.004,0.893,0.044,1.342,0.155c2.314,0.566,3.964,2.582,4.062,4.957c0.003,0.062,0.016,0.115,0.03,0.175
		c-0.045,0.46,0.283,0.934,0.729,1.049c2.966,0.828,4.684,3.881,3.858,6.854c-0.823,2.973-3.869,4.693-6.832,3.867
		c-1.503-0.418-3.245-2.366-3.478-2.78c-0.232-0.413-0.283-0.497-0.411-0.718c0,0,1.758-0.711,1.541-0.945
		c-1.135-1.229-4.127-2.659-4.62-2.293c-0.49,0.365-0.617,3.923,0.04,5.164c0.149,0.283,1.388-0.943,1.388-0.943
		s0.077,0.1,0.253,0.418c0.174,0.316,0.747,1.271,1.155,1.738c-2.563,2.283-6.47,2.297-9.059-0.076
		c-2.76-2.533-2.939-6.793-0.408-9.556c2.439-2.661,6.379-2.803,9.244-0.69c1.077,0.45,1.944-0.832,1.09-1.711
		c-0.898-0.763-3.086-1.595-4.638-1.72C11.323,957.912,13.149,956.776,15.146,956.759z"/>
</g>
</svg>
