<?xml version="1.0" encoding="utf-8"?>
<!-- Generator: Adobe Illustrator 16.0.0, SVG Export Plug-In . SVG Version: 6.00 Build 0)  -->
<!DOCTYPE svg PUBLIC "-//W3C//DTD SVG 1.1//EN" "http://www.w3.org/Graphics/SVG/1.1/DTD/svg11.dtd">
<svg version="1.1" id="Layer_1" xmlns="http://www.w3.org/2000/svg" xmlns:xlink="http://www.w3.org/1999/xlink" x="0px" y="0px"
	 width="28px" height="28px" viewBox="0 0 28 28" enable-background="new 0 0 28 28" xml:space="preserve">
<g>
	<path d="M10.025,8.66c0.209,0.016,0.358,0.483,0.416,0.606c0.036,0.076,0.108,0.041,0.102-0.009c0,0-0.02-0.282-0.037-0.646
		c-0.006-0.006-0.013-0.013-0.018-0.019c-0.083-0.14-0.354-0.26-0.618-0.26c0,0-0.084,0-0.189,0c-0.104,0-0.274,0.079-0.343,0.203
		C9.164,8.84,9.125,9.279,9.194,9.963c0.005,0.039,0.095,0.913,0.268,1.319c0.121,0.28,0.342,0.503,0.631,0.635
		c0.042,0.251,0.106,0.581,0.196,0.894c0.268,0.919,1.645,2.593,3.434,2.651c0.047,0.002,0.15,0.002,0.251,0.002l0.234-0.002
		c1.797-0.016,3.235-1.735,3.503-2.651c0.09-0.313,0.154-0.644,0.193-0.894c0.29-0.132,0.513-0.355,0.632-0.637
		c0.171-0.405,0.265-1.279,0.268-1.317c0.071-0.69,0.029-1.129-0.148-1.434c-0.07-0.121-0.238-0.205-0.342-0.202
		c-0.094,0.002-0.187,0.005-0.187,0.005c-0.264,0-0.534,0.12-0.616,0.26c-0.003,0.003-0.008,0.006-0.012,0.013
		c-0.018,0.368-0.043,0.652-0.043,0.652c-0.007,0.05,0.067,0.085,0.102,0.009c0.057-0.123,0.206-0.59,0.416-0.604
		c0.14-0.008,0.23,0.15,0.255,0.229c0.04,0.13,0.072,0.395,0.015,0.943c-0.049,0.474-0.15,1.006-0.227,1.184
		c-0.047,0.11-0.134,0.184-0.261,0.216c-0.354,0.097-0.436,0.311-0.452,0.429c-0.041,0.3-0.115,0.742-0.23,1.135
		c-0.189,0.655-1.391,2.19-2.855,2.203c-0.072,0.003-0.397,0.003-0.485,0c-1.415-0.045-2.598-1.479-2.808-2.203
		c-0.104-0.35-0.173-0.738-0.216-1.032c-0.006-0.035-0.01-0.071-0.016-0.103c-0.015-0.118-0.095-0.332-0.452-0.429
		c-0.125-0.032-0.213-0.106-0.261-0.216c-0.074-0.177-0.176-0.709-0.226-1.184C9.699,9.286,9.729,9.021,9.77,8.891
		C9.794,8.812,9.883,8.653,10.025,8.66z"/>
	<path d="M19.469,7.288v-0.94c0-0.297-0.143-0.536-0.314-0.536c-0.173,0-0.312-0.242-0.344-0.535
		c-0.155-1.401-0.91-2.621-2.001-3.399c-0.121-0.087-0.247-0.031-0.276,0.112l-0.603,2.986c-0.117,0.581-0.274,1.042-0.352,1.031
		c-0.074-0.015-0.074-0.5,0.003-1.089L16.008,1.7c0.019-0.147-0.074-0.317-0.213-0.374c-0.555-0.222-1.161-0.347-1.796-0.347
		c-0.632,0-1.239,0.125-1.793,0.348c-0.135,0.055-0.229,0.225-0.209,0.373l0.424,3.221c0.076,0.588,0.079,1.072,0.002,1.087
		c-0.076,0.011-0.232-0.448-0.35-1.031L11.468,1.99c-0.029-0.145-0.155-0.2-0.276-0.113c-1.093,0.779-1.85,1.996-2.004,3.399
		C9.156,5.57,9.019,5.812,8.844,5.812c-0.174,0-0.312,0.24-0.312,0.536v0.94c0,0.298,0.242,0.537,0.539,0.537h0.263
		c0.298,0,0.603,0.145,0.698,0.316c0.032,0.064,0.1,0.119,0.184,0.168c0.123,0.064,0.3,0.196,0.432,0.264
		c0.493,0.255,1.808,0.436,3.351,0.436c1.544,0,2.859-0.181,3.352-0.436c0.131-0.068,0.312-0.2,0.433-0.264
		c0.085-0.049,0.151-0.104,0.186-0.168c0.094-0.171,0.399-0.316,0.696-0.316h0.265C19.227,7.825,19.469,7.584,19.469,7.288z"/>
	<path d="M19.149,17.436c0,0,0.112-0.132,0.001-0.184c-0.385-0.176-0.637-0.29-0.639-0.292c-0.182-0.117-1.156-1.111-1.156-1.111
		c-0.087-0.102-0.19-0.164-0.272-0.152c-0.087,0.003-0.152,0.078-0.152,0.268v0.038c0.164,1.624-6.027,1.624-5.861,0l-0.001-0.038
		c-0.002-0.189-0.066-0.265-0.153-0.268c-0.081-0.012-0.187,0.051-0.272,0.152c0,0-1.16,1.123-1.165,1.126
		c-0.076,0.049-4.643,2.109-4.643,2.109c-0.387,0.174-0.745,0.768-0.8,1.329L3.69,26.129c-0.055,0.558,0.229,1.013,0.635,1.013
		h14.74 M8.589,24.684c0,0.146-0.116,0.258-0.258,0.258H6.684c-0.142,0-0.256-0.112-0.256-0.258v-5.295
		c0-0.144,0.104-0.305,0.237-0.361l1.687-0.726c0.132-0.057,0.238,0.015,0.238,0.156V24.684L8.589,24.684z"/>
	<path d="M8.935,27.142h14.739c0.406,0,0.69-0.455,0.636-1.013l-0.346-5.716c-0.055-0.562-0.412-1.155-0.8-1.329
		c0,0-4.566-2.061-4.643-2.109c-0.005-0.003-1.164-1.126-1.164-1.126c-0.086-0.102-0.192-0.164-0.272-0.152
		c-0.088,0.003-0.152,0.078-0.153,0.268l-0.001,0.038c0.166,1.624-6.025,1.624-5.861,0v-0.038c0-0.189-0.066-0.265-0.153-0.268
		c-0.082-0.012-0.186,0.051-0.272,0.152c0,0-0.974,0.994-1.156,1.111c-0.001,0.002-0.253,0.116-0.639,0.292
		c-0.111,0.052,0.001,0.184,0.001,0.184 M19.41,24.684v-6.226c0-0.142,0.106-0.213,0.239-0.156l1.687,0.726
		c0.132,0.057,0.237,0.218,0.237,0.361v5.295c0,0.146-0.115,0.258-0.257,0.258h-1.648C19.526,24.941,19.41,24.829,19.41,24.684
		L19.41,24.684z"/>
</g>
</svg>
